<svg id="Warstwa_1" data-name="Warstwa 1" xmlns="http://www.w3.org/2000/svg" xmlns:xlink="http://www.w3.org/1999/xlink" viewBox="0 0 398.6 320.1"><defs><style>.cls-1{fill:url(#Gradient_bez_nazwy_7);}</style><linearGradient id="Gradient_bez_nazwy_7" y1="160.05" x2="398.6" y2="160.05" gradientUnits="userSpaceOnUse"><stop offset="0" stop-color="#3a1374"/><stop offset="1" stop-color="#752eb6"/></linearGradient></defs><title>ahead</title><path class="cls-1" d="M199.55,177.05l-136,136a23.9,23.9,0,0,1-33.8.1l-.1-.1-22.6-22.6a23.9,23.9,0,0,1-.1-33.8l.1-.1,96.4-96.4L7.05,63.75A23.9,23.9,0,0,1,7,30l.1-.1,22.5-22.8A23.9,23.9,0,0,1,63.35,7l.1.1,136,136a23.93,23.93,0,0,1,.26,33.84Zm192-34-136-136a23.9,23.9,0,0,0-33.8-.1l-.1.1-22.6,22.6a23.9,23.9,0,0,0-.1,33.8l.1.1,96.4,96.4-96.4,96.4a23.9,23.9,0,0,0-.1,33.8l.1.1,22.6,22.6a23.9,23.9,0,0,0,33.8.1l.1-.1,136-136a23.78,23.78,0,0,0,.17-33.63l-.17-.17Z" transform="translate(0 0)"/></svg>