<svg id="Warstwa_1" data-name="Warstwa 1" xmlns="http://www.w3.org/2000/svg" xmlns:xlink="http://www.w3.org/1999/xlink" viewBox="0 0 512.03 512.05"><defs><style>.cls-1{fill:url(#Gradient_bez_nazwy_2);}</style><linearGradient id="Gradient_bez_nazwy_2" x1="496.16" y1="251.87" x2="-22.4" y2="260.39" gradientUnits="userSpaceOnUse"><stop offset="0" stop-color="#752eb6"/><stop offset="0.59" stop-color="#501d8d"/><stop offset="1" stop-color="#3a1374"/></linearGradient></defs><title>alg</title><path class="cls-1" d="M501.1,395.7,384,278.6a74.25,74.25,0,0,0-85.4-13.9L192,158.1V96L64,0,0,64,96,192h62.1L264.7,298.6c-13.6,27.8-9.2,62.3,13.9,85.4L395.7,501.1a37.18,37.18,0,0,0,52.7,0l52.7-52.7a37.36,37.36,0,0,0,0-52.7ZM331.7,225a105.21,105.21,0,0,1,74.9,31L426,275.4a141.55,141.55,0,0,0,43.8-29.5,143.81,143.81,0,0,0,37.9-136.7,12,12,0,0,0-20.1-5.5l-74.4,74.4-67.9-11.3L334,98.9l74.4-74.4a12.07,12.07,0,0,0-5.7-20.2A144.05,144.05,0,0,0,266.1,42.2c-28.5,28.5-41.9,66.1-41.2,103.6L307,227.9a108.94,108.94,0,0,1,24.7-2.9ZM227.8,307l-56.7-56.7L18.7,402.8a64,64,0,0,0,90.5,90.5L232.8,369.7c-7.6-19.9-9.9-41.6-5-62.7ZM64,472a24,24,0,1,1,24-24A24.07,24.07,0,0,1,64,472Z" transform="translate(0.05)"/></svg>