<?xml version="1.0" encoding="utf-8"?>
<!-- Generator: Adobe Illustrator 24.0.1, SVG Export Plug-In . SVG Version: 6.00 Build 0)  -->
<svg version="1.1" id="Warstwa_1" xmlns="http://www.w3.org/2000/svg" xmlns:xlink="http://www.w3.org/1999/xlink" x="0px" y="0px"
	 viewBox="0 0 800 135.1" style="enable-background:new 0 0 800 135.1;" xml:space="preserve">
<style type="text/css">
	.st0{fill:url(#SVGID_1_);}
	.st1{fill:url(#SVGID_2_);}
	.st2{font-family:'LucidaGrande';}
	.st3{font-size:20px;}
</style>
<title>compare</title>
<linearGradient id="SVGID_1_" gradientUnits="userSpaceOnUse" x1="0" y1="89.5" x2="800" y2="89.5" gradientTransform="matrix(1 0 0 -1 0 100)">
	<stop  offset="0" style="stop-color:#752EB6"/>
	<stop  offset="1" style="stop-color:#949CCC"/>
</linearGradient>
<path class="st0" d="M789.1,21H0V0h789.9c5.6,0,10.1,4.5,10.1,10.1c0,0,0,0,0,0l0,0C800,16.1,795.1,21,789.1,21z"/>
<linearGradient id="SVGID_2_" gradientUnits="userSpaceOnUse" x1="-12.28" y1="9.5" x2="243.72" y2="9.5" gradientTransform="matrix(1 0 0 -1 0 100)">
	<stop  offset="0" style="stop-color:#444444"/>
	<stop  offset="1" style="stop-color:#CCCCCC"/>
</linearGradient>
<path class="st1" d="M245.5,101H0V80h245.5c5.8,0,10.5,4.7,10.5,10.5v0l0,0C256,96.3,251.3,101,245.5,101z"/>
<text transform="matrix(1 0 0 1 10.93 39.86)" class="st2 st3">NEW GENMEN II™</text>
<text transform="matrix(1 0 0 1 11.31 120.39)" class="st2 st3">OLD GENMEN™</text>
</svg>
