<?xml version="1.0" encoding="utf-8"?>
<!-- Generator: Adobe Illustrator 24.0.1, SVG Export Plug-In . SVG Version: 6.00 Build 0)  -->
<svg version="1.1" id="Warstwa_1" focusable="false"
	 xmlns="http://www.w3.org/2000/svg" xmlns:xlink="http://www.w3.org/1999/xlink" x="0px" y="0px" viewBox="0 0 576 512"
	 style="enable-background:new 0 0 576 512;" xml:space="preserve">
<style type="text/css">
	.st0{fill:#EEEEEE;}
</style>
<path class="st0" d="M288,144c-10.6,0.2-21.1,1.8-31.2,5c4.7,8.2,7.2,17.5,7.2,27c0,30.9-25.1,56-56,56c-9.5-0.1-18.8-2.6-27-7.2
	C163.9,284,198.1,346,257.4,363c59.3,17.1,121.2-17.1,138.3-76.4s-17.1-121.2-76.4-138.3C309.1,145.4,298.6,144,288,144z
	 M572.5,241.4C518.3,135.6,410.9,64,288,64S57.7,135.6,3.5,241.4c-4.6,9.2-4.6,20,0,29.2C57.7,376.4,165.1,448,288,448
	s230.3-71.6,284.5-177.4C577.2,261.4,577.2,250.6,572.5,241.4z M288,400c-98.6,0-189.1-55-237.9-144C98.9,167,189.3,112,288,112
	s189.1,55,237.9,144C477.1,345,386.7,400,288,400z"/>
</svg>
