<svg id="Warstwa_1" data-name="Warstwa 1" xmlns="http://www.w3.org/2000/svg" xmlns:xlink="http://www.w3.org/1999/xlink" viewBox="0 0 1444.58 660.75"><defs><style>.cls-1{fill:none;}.cls-2{clip-path:url(#clip-path);}.cls-3{fill:url(#Gradient_bez_nazwy_2);}.cls-4{fill:#0071bc;stroke:#000;stroke-miterlimit:10;}</style><clipPath id="clip-path" transform="translate(1.55 -0.97)"><path class="cls-1" d="M-46.2,1451.5C-53.46,1379-83,1054.14-19.11,734,15.5,560.48,63.09,460.94,90.74,412.16c53.33-94.06,100.79-124.55,149-151.71,20.12-11.35,86.41-45.75,193.11-24.11,122.24,24.81,142,91.63,238.76,107.76,93.07,15.52,158.5-32.27,206.66-59.55,337.5-191.11,609.14,183.08,665.61-78C1588.56-.14,1474.1-493,1362.27-754.79,892-1855.66-137.09-288.49-300-34.48"/></clipPath><linearGradient id="Gradient_bez_nazwy_2" x1="719.89" y1="58.33" x2="721.38" y2="957.54" gradientTransform="matrix(1, 0, 0, -1, 1.55, 901.03)" gradientUnits="userSpaceOnUse"><stop offset="0.57" stop-color="#752eb6"/><stop offset="0.99" stop-color="#651f65"/></linearGradient></defs><title>head_mob</title><g class="cls-2"><rect class="cls-3" x="0.5" y="1.42" width="1443.58" height="657.92"/><path d="M1442,3.8V658.88H-.55V3.8H1442M1443,1H-1.55V661.72H1443Z" transform="translate(1.55 -0.97)"/><path class="cls-4" d="M126.35,373.88" transform="translate(1.55 -0.97)"/><path class="cls-4" d="M120.33,342.69" transform="translate(1.55 -0.97)"/></g></svg>