<svg id="Warstwa_1" data-name="Warstwa 1" xmlns="http://www.w3.org/2000/svg" xmlns:xlink="http://www.w3.org/1999/xlink" viewBox="0 0 1440 233"><defs><style>.cls-1{fill:none;}.cls-2{clip-path:url(#clip-path);}.cls-3{fill:url(#Gradient_bez_nazwy_3);}.cls-4{fill:#0071bc;stroke:#000;stroke-miterlimit:10;}</style><clipPath id="clip-path"><path class="cls-1" d="M-44.5,511.5c-7.24-25.57-36.65-140.12,27-253C17,197.3,64.44,162.2,92,145c53.16-33.17,100.47-43.92,148.5-53.5,20.06-4,86.13-16.13,192.5-8.5,121.85,8.75,141.52,32.31,238,38,92.77,5.47,158-11.38,206-21,336.43-67.39,607.21,64.56,663.5-27.5,44.57-72.89-69.52-246.68-181-339C890.74-654.7-135.11-102.07-297.5-12.5"/></clipPath><linearGradient id="Gradient_bez_nazwy_3" x1="719.7" y1="298.36" x2="720.23" y2="-20.83" gradientUnits="userSpaceOnUse"><stop offset="0.57" stop-color="#752eb6"/><stop offset="0.99" stop-color="#651f65"/></linearGradient></defs><title>head</title><g class="cls-2"><rect class="cls-3" x="0.5" y="0.5" width="1439" height="232"/><path d="M1439,1V232H1V1H1439m1-1H0V233H1440V0Z"/><path class="cls-4" d="M127.5,131.5"/><path class="cls-4" d="M121.5,120.5"/></g></svg>