<svg id="Warstwa_1" data-name="Warstwa 1" xmlns="http://www.w3.org/2000/svg" xmlns:xlink="http://www.w3.org/1999/xlink" viewBox="0 0 576 448"><defs><style>.cls-1{fill:#bc0404;}.cls-2{fill:#ddd;}.cls-3{fill:url(#Gradient_bez_nazwy_7);}</style><linearGradient id="Gradient_bez_nazwy_7" y1="224" x2="576" y2="224" gradientUnits="userSpaceOnUse"><stop offset="0" stop-color="#4e1a84"/><stop offset="1" stop-color="#752eb6"/></linearGradient></defs><title>speed</title><rect class="cls-1" x="434.72" y="280.75" width="97.29" height="87.25"/><rect class="cls-2" x="266.81" y="74.58" width="181.91" height="354.83" rx="33.99" transform="translate(143.24 -129.42) rotate(25.49)"/><rect class="cls-2" x="247.92" y="56.75" width="78.5" height="78.5"/><rect class="cls-2" x="104.75" y="120.75" width="78.5" height="78.5"/><rect class="cls-2" x="56.75" y="280.75" width="78.5" height="78.5"/><path class="cls-3" d="M288,0C128.94,0,0,128.94,0,288A286.44,286.44,0,0,0,39.06,432.8c5.61,9.62,16.3,15.2,27.44,15.2h443c11.14,0,21.83-5.58,27.44-15.2A286.44,286.44,0,0,0,576,288C576,128.94,447.06,0,288,0Zm0,64c14.71,0,26.58,10.13,30.32,23.65-1.11,2.26-2.64,4.23-3.45,6.67L305.65,122c-5.13,3.49-11,6-17.64,6a32,32,0,0,1,0-64ZM96,352a32,32,0,1,1,32-32A32,32,0,0,1,96,352Zm48-160a32,32,0,1,1,32-32A32,32,0,0,1,144,192Zm246.77-72.41-61.33,184A62.8,62.8,0,0,1,343.12,384H232.88a63.34,63.34,0,0,1,51-95.59l61.34-184a24,24,0,0,1,45.53,15.19Zm14.66,57.2L421,130.24A31.43,31.43,0,0,1,432,128a32,32,0,0,1,0,64c-11.38,0-20.89-6.28-26.57-15.22ZM480,352a32,32,0,1,1,32-32A32,32,0,0,1,480,352Z" transform="translate(0)"/></svg>